<?xml version="1.0" encoding="UTF-8"?><svg id="Layer_2" xmlns="http://www.w3.org/2000/svg" viewBox="0 0 391.68265 73.52174"><defs><style>.cls-1{fill-rule:evenodd;}.cls-1,.cls-2,.cls-3{fill:#fff;}.cls-4{letter-spacing:-.02398em;}.cls-3{font-family:VoxRound-Semibold, 'Vox Round';font-size:12px;font-weight:600;}</style></defs><g id="Layer_1-2"><path class="cls-1" d="M324.60901,54.78157c.66932.45531.83654,1.15008.53862,2.12601-.1929.63546-.54224.87309-1.35768.87487-3.28268.00879-6.5643.00109-9.84507.01945-.44998.00124-.62416-.11422-.61479-.60134.02822-1.62135.02822-3.24135,0-4.8627-.00817-.49372.18595-.60362.6261-.60362,3.2219.01055,6.44395.00476,9.66559.00936.62589.00119,1.24705.03231,1.50591.77058.31258.89435.13478,1.7321-.51868,2.26739h0ZM319.13411,56.75647h0c1.3644,0,2.72748.00528,4.09116-.00243.67297-.00528.90777-.21295.90586-.74298-.00241-.59545-.38586-.71306-.87296-.71187-2.72686,0-5.45338.01177-8.18203-.00936-.55823-.00587-.64237.24531-.64351.72123-.003.49592.07998.77123.67185.75599,1.34239-.03412,2.68734-.01058,4.02962-.01058h0ZM319.17604,54.24029h0v-.00409c1.36052,0,2.72492.00409,4.08741,0,.48063,0,.86768-.12299.86768-.71942-.00119-.59307-.38356-.71549-.86947-.71549-2.7251,0-5.44989.01249-8.17497-.00936-.56648-.00528-.63882.26127-.64351.727-.00409.47595.08828.74011.64351.73072,1.36259-.0269,2.72508-.00936,4.08935-.00936h0Z"/><path class="cls-1" d="M269.48833,54.79502c.75607.34008.76016,1.14315.53133,2.13369-.14128.59894-.54312.84955-1.31564.85195-3.3019.01058-6.60514.00287-9.90836.02124-.44424.00124-.5777-.14606-.57072-.58368.02186-1.60009.02713-3.20509-.0029-4.80626-.01009-.51894.14873-.68375.66888-.68062,3.18551.01922,6.36884.00766,9.55447.00985.62118.00241,1.25954.0036,1.54303.72123.35053.89073.16709,1.75792-.50008,2.33259h0ZM264.0513,56.75647h0c1.34252,0,2.68625.00528,4.02867-.00243.68592-.00409.92365-.1994.93183-.71942.00887-.5259-.23054-.73062-.90829-.73422-2.70676-.00287-5.41228.00949-8.11837-.01058-.5336-.003-.68016.19293-.6643.69529.01601.46069.01782.79717.64195.78194,1.36249-.03701,2.72435-.01058,4.08852-.01058h0ZM264.03376,52.80129h0c-1.36249,0-2.72554.01899-4.08743-.00817-.52711-.01068-.6255.23475-.61371.68711.01009.42466-.00866.77185.59545.76776,2.74321-.01948,5.48991-.0089,8.2349-.01179.49649,0,.8577-.16073.84714-.73841-.01117-.58945-.40303-.69769-.88881-.69769-1.36272.003-2.72456.00119-4.08754.00119h0Z"/><path class="cls-1" d="M292.21239,57.79424c-1.72202,0-3.44393-.01598-5.16473.0089-.49587.00693-.70119-.10248-.68882-.65181.03461-1.62148.02693-3.24644.0029-4.87007-.00587-.46478.13178-.60771.60652-.60652,3.54325.01945,7.08541.01705,10.62758.00409.42466-.00241.59594.10126.59695.55942.00189.46071-.16942.56304-.59576.56185-3.12759-.01345-6.25304-.01045-9.3803,0-.23364.00119-.6448.06942-.67126.1778-.08373.35172-.07196.74704.00525,1.1036.02235.09356.41411.15183.63466.15183,2.27665.01177,4.55218.00817,6.82834.00817.87115,0,1.74196.01296,2.61142-.0053.39822-.00528.56138.1241.56472.54537.00481.44592-.19459.52295-.57532.52243-3.10786-.00947-6.2159-.006-9.322-.00481-.7389,0-1.12535.56591-.77723,1.21666.08062.14994.43728.21179.6672.21419,2.15842.01467,4.31505.00936,6.47168.00936.98961,0,1.97896.01055,2.96811-.0036.39455-.00817.56516.11184.56756.54129.00481.4424-.19052.52481-.57532.5224-1.80137-.01296-3.60098-.00525-5.40214-.00525h0Z"/><path class="cls-1" d="M220.03547,51.68533c1.38362,0,2.76734-.00409,4.15096.00119,1.36381.00528,1.77307.41602,1.77426,1.7679.00122,1.26482-.01286,2.52951.00768,3.79433.00577.41072-.12589.55316-.53947.55605-.43643.00528-.58239-.1278-.58239-.576,0-1.44957-.01813-1.44957-1.4802-1.44957-2.47196,0-4.9427.01177-7.41419-.00949-.52711-.00458-.78189.14296-.70178.70431.03174.21287.00698.43472.00577.6524-.00577.64713-.101.75416-.71461.64832-.14428-.02488-.36711-.24712-.36832-.37901-.02294-1.52177-.02713-3.04604.00409-4.56734.00936-.54426.33059-.92363.88713-1.03656.28894-.05763.58477-.10007.87717-.10126,1.36595-.01058,2.73082-.00528,4.0939-.00528h0ZM220.03306,54.72754h3.68044c1.19765,0,1.18492,0,1.14886-1.20621-.01477-.50404-.25705-.7241-.73-.7241-2.72963-.00303-5.45708-.00303-8.18793.00119-.44698,0-.71187.20059-.68833.68774.01058.19518.02116.39773-.00406.59245-.06068.48893.13476.66407.62884.6554,1.38375-.02305,2.76915-.00887,4.15217-.00647h0Z"/><path class="cls-1" d="M347.47874,51.68533c1.36595,0,2.73015-.00409,4.0933.00119,1.29881.00528,1.71242.41483,1.71845,1.69017.00453,1.28608-.01542,2.57084.01102,3.8557.00649.45528-.16409.57768-.59237.5724-.41886-.0029-.53417-.15592-.53945-.56182-.01179-1.46375-.02416-1.46375-1.516-1.46375-2.41322,0-4.82643-.00106-7.23846,0-.82935.00122-.83007.00422-.83103.80351,0,.19777-.02354.39848.00277.59307.08722.58011-.24339.70369-.69516.59897-.16026-.03758-.38839-.26957-.3915-.4154-.02861-1.46181-.03388-2.92737-.00745-4.38869.01288-.70695.3647-1.06829,1.07067-1.20954.24926-.04819.50813-.07053.76243-.07172,1.3847-.00817,2.76907-.00409,4.15277-.00409h0ZM347.3686,54.72754h0c1.34371,0,2.68961.00106,4.03573-.00241.7741-.00181.7741-.0059.77601-.78946,0-.09767,0-.19774-.00191-.29603-.00874-.70294-.13044-.83835-.82464-.84241-1.24596-.00877-2.4926-.00411-3.73809-.00411-1.40478,0-2.80784-.00647-4.21319.00411-.64436.00406-.80483.17824-.81735.80829-.00287.15765.01598.31838-.00409.47598-.06523.49056.14609.65877.63474.65251,1.38318-.02245,2.76812-.00887,4.15279-.00647h0Z"/><path class="cls-1" d="M250.13359,51.68533c1.3854,0,2.77093-.00409,4.15561.00119,1.33559.00528,1.7403.40182,1.74485,1.72323.00662,1.26578-.00455,2.53248.00481,3.79911.00292.3623-.04578.59428-.50417.59594-.45779.0029-.56653-.18884-.57468-.60424-.02656-1.42239-.03877-1.42133-1.47324-1.42133-2.4537,0-4.90631-.00106-7.35832.00122-.80762,0-.80762.00406-.80881.82948,0,.17764-.00939.3565.00119.53417.02762.39895-.01058.66839-.54765.66839-.52711,0-.56604-.24877-.56136-.65781.01655-1.26769.00468-2.5331.00709-3.79865.00181-1.19837.43883-1.65365,1.64297-1.66661,1.42389-.01467,2.84928-.00409,4.2717-.00409h0ZM250.10703,54.72513h0c1.40247,0,2.80327.00466,4.20649-.0059.18522,0,.52755-.06128.53466-.12193.05044-.4805.10703-.98526.00287-1.44645-.03807-.16722-.50295-.33586-.77576-.34246-1.53966-.03171-3.07917-.01529-4.62114-.01529-1.10541,0-2.21022-.00647-3.31742.00411-.63306.00706-.80123.19122-.8159.81481-.00409.1576.01586.3176-.00528.47352-.06477.50238.16818.65375.6441.64656,1.38243-.01948,2.76568-.00698,4.14736-.00698h0Z"/><path class="cls-1" d="M333.34156,57.79124c-1.50255,0-3.0046.00825-4.5064-.0023-.99057-.00828-1.37076-.3855-1.38088-1.35897-.0127-1.12597-.0127-2.2537.00194-3.38038.01055-.85902.36002-1.27478,1.20835-1.28246,3.10201-.02594,6.20583-.02814,9.30906-.00168.88713.00647,1.27535.46415,1.28352,1.35584.01179,1.12835.01371,2.25443,0,3.38038-.01055.84471-.43687,1.26888-1.28944,1.27416-1.54308.0119-3.08435.00362-4.62616.00362v.01179h0ZM333.3644,56.73819h0v-.00525c1.32426,0,2.64851.01464,3.97329-.0053.69242-.01058.81422-.16241.81947-.85891.00362-.72953.00362-1.46191,0-2.19194-.00525-.70131-.16598-.85891-.8801-.87368-.33638-.00771-.67297-.003-1.00839-.003-2.2731,0-4.54507-.00287-6.8176.003-.76776.00119-.88656.13119-.88884.90071-.003.71065-.003,1.42255,0,2.13428.00228.76942.10822.88954.89003.89484,1.30431.01345,2.60853.00525,3.91214.00525h0Z"/><path class="cls-1" d="M191.99511,51.68533c1.76022,0,3.5209.00647,5.28232-.00409.39411-.00241.669.0029.669.54837,0,.52352-.23294.57049-.64775.56881-3.12617-.00877-6.25292-.00996-9.3803.00287-.24709.00181-.68832.10416-.70536.21313-.06765.4364-.03954.89768.03938,1.3353.01538.08409.42344.13696.65108.13696,3.12569.00768,6.25197.00551,9.37814.00551.34935,0,.6541-.03303.66058.49879.00639.50836-.17237.63761-.65121.63474-3.12567-.01816-6.25352-.01058-9.3786-.00758-.76893,0-.77001.0023-.77301.79309,0,.23747.0012.47401,0,.71293-.00468.65168-.13286.7764-.76532.65062-.13359-.02703-.32999-.23173-.3318-.35643-.02173-1.78086-.01068-3.5628-.01765-5.34296-.00288-.44121.29119-.39005.56784-.39005h5.40268Z"/><path class="cls-1" d="M182.45072,56.50866c0-1.49414.01297-2.83498-.00649-4.17323-.00648-.42463.11244-.61177.56663-.60119.39763.01055.55943.12814.55536.55303-.02067,1.65896-.01719,3.32029-.00239,4.98152.00407.38128-.11606.57781-.50479.50947-.43775-.0776-.90948-.10346-1.29665-.29468-2.74308-1.35837-5.46766-2.75379-8.19945-4.13523-.20542-.10413-.41792-.19459-.71307-.33105-.02823.31473-.06307.54294-.06428.76699-.00576,1.14793-.01345,2.29514.0012,3.44093.00554.38245-.08396.58081-.52399.57959-.42656-.00166-.53828-.17826-.5414-.57121-.00457-1.54085-.03051-3.08279-.05346-4.62414-.01465-.92821.32412-1.17362,1.21605-.86825.16818.05825.32289.15183.48123.23062,2.75076,1.38421,5.50178,2.76845,8.25255,4.15339.22405.11112.45408.20948.83296.38345h0Z"/><path class="cls-1" d="M235.10157,51.68533c2.09608,0,4.19219.00647,6.28537-.0053.39173-.00241.61769.04123.62343.53192.00603.4953-.18354.59234-.62584.58815-1.58074-.01994-3.16148-.00817-4.74281-.00698q-.89893,0-.90131.92823c-.00109,1.12548-.01648,2.252.0066,3.37913.01045.47835-.08662.71658-.64545.712-.5253-.00479-.68592-.17058-.67294-.68603.03099-1.18541-.01767-2.3732.02113-3.5567.02067-.60952-.20467-.7831-.79246-.77133-1.61954.03244-3.24088.00168-4.8621.01658-.42489.00528-.63787-.07364-.64195-.58202-.00241-.53707.26414-.55414.66549-.55295,2.09368.01177,4.18976.0053,6.28284.0053h0Z"/><path class="cls-1" d="M205.9605,57.79424c-1.75828,0-3.51777-.01179-5.27628.00766-.46585.00817-.66717-.09537-.65759-.61839.03172-1.64067.02332-3.28077.00228-4.92216-.00467-.42825.10836-.5895.56354-.5895.46463-.00287.56469.17516.55702.59527-.02162,1.24363.02063,2.49213-.02043,3.73628-.01887.58246.18693.74777.74417.74536,3.10371-.02113,6.20706-.01296,9.31076-.00528.27353.00122.63306-.10644.68499.35353.04454.42357-.00605.71546-.56969.70613-1.77882-.02607-3.55789-.0089-5.33877-.0089h0Z"/><path class="cls-1" d="M278.25803,57.79424c-1.7583,0-3.5185-.01717-5.27631.01055-.51547.00768-.6942-.15232-.68603-.67594.02581-1.599.01523-3.2009.0053-4.79989-.00184-.4088.05054-.66526.57478-.6583.5253.00409.50295.30009.50117.65421-.00455,1.22589.02245,2.45191-.01177,3.67441-.01632.57313.18595.75188.74945.74948,3.12376-.02113,6.24644-.01058,9.36806-.00817.32986,0,.6823-.07196.68062.47644,0,.43185-.1218.59066-.56891.58487-1.77786-.01945-3.5568-.00766-5.33637-.00766h0Z"/><path class="cls-1" d="M168.3294,54.71792c0-.84942.01826-1.69943-.00697-2.54728-.01177-.41527.17345-.49879.53647-.49302.35306.00652.6076.01948.60231.49061-.01945,1.71912-.01693,3.43932-.00119,5.1558.00239.44124-.24279.46131-.5712.4595-.32579-.00109-.57937-.00771-.5664-.45828.02523-.86828.00697-1.73906.00697-2.60734h0Z"/><path class="cls-1" d="M245.48381,36.16452c.51821.58823,1.01183,1.10145,1.45195,1.65676,2.06427,2.61435,3.05253,5.58411,2.89974,8.92791-.01658.38237-.12951.51283-.51728.51066-2.41371-.01417-4.82798-.00947-7.24288-.0036-.30188.00119-.51245-.0472-.47605-.41648.18114-1.84019-.29525-3.4851-1.4831-4.9122-1.37123-1.65138-3.17961-2.60736-5.22753-3.06153-1.30194-.28951-2.65144-.47067-3.98219-.48891-4.67098-.05636-9.34137-.02113-14.01129-.02113-.79355,0-.79596.00406-.79596.7742-.00241,2.47377-.01526,4.94813.0036,7.42249.00458.48361-.13525.66164-.63306.65755-2.23663-.0187-4.47399-.02116-6.70941.00119-.53073.00484-.66417-.18114-.66311-.69118.01658-4.80701.02007-9.61683-.00287-14.42475-.00287-.56785.18176-.68786.70887-.68667,9.53862.01464,19.07822.01177,28.61684.0082,1.18782-.00122,2.31855-.24593,3.30384-.95058,1.70194-1.21676,1.68728-3.3227-.03461-4.51349-.94023-.64824-2.00154-.9071-3.13698-.90529-9.42137.00119-18.84096,0-28.26137,0q-1.18254,0-1.18254-1.19371c0-1.7006.01298-3.40376-.00996-5.10511-.00696-.47367.10716-.65771.6201-.65771,10.05277.02116,20.1072-.0477,30.15805.07462,3.53158.04177,6.63313,1.45027,8.90629,4.28644,3.28496,4.10088,2.52193,9.95391-1.68671,13.23587-.18476.14586-.36949.28951-.61239.47644h0Z"/><path class="cls-1" d="M296.37629,32.6842c0,4.63231-.00942,9.26271.01174,13.89549.00119.52365-.15064.67897-.67175.67247-2.19553-.02532-4.39409-.03016-6.59133.00287-.59353.0089-.77374-.1517-.77252-.76243.02367-6.84875.01945-13.69762.02126-20.54616q0-.89758-.91129-.89877c-4.76984,0-9.5397-.01935-14.31063.00771-2.32326.01415-4.55942.48529-6.58016,1.68942-1.97728,1.17556-3.35441,2.81095-3.68789,5.16928-.32841,2.31508.53986,4.18807,2.20769,5.72127,1.63156,1.49939,3.63287,2.31795,5.79897,2.42835,3.39561.17058,6.80227.11663,10.20318.15592,1.0213.01247.90948-.10054.91139.93134.00528,1.8014-.01586,3.60271.01273,5.40411.00768.5276-.11158.71945-.68398.70887-3.48223-.06521-6.97357.03818-10.44688-.15783-4.58992-.25982-8.83495-1.61237-12.21651-4.91738-5.62285-5.49472-5.35401-14.26381.54129-19.48291,2.62384-2.32566,5.71646-3.66169,9.13789-4.19987,1.68971-.26654,3.41855-.37826,5.12808-.3879,7.36554-.03869,14.72797-.01635,22.091-.01635.80651,0,.80775.00243.80775.80716v13.77535h0Z"/><path class="cls-1" d="M189.03503,47.13735c-4.07697,0-8.15971.15589-12.22826-.03869-4.98572-.24135-9.49454-1.8485-12.95946-5.6653-1.96911-2.17081-3.16269-4.72574-3.36799-7.67315-.40998-5.88404,2.28313-10.09674,7.21058-13.01351,2.57203-1.52145,5.41878-2.26731,8.38903-2.50082,1.27898-.10235,2.56674-.13716,3.84981-.14125,7.1254-.01348,14.25082-.00866,21.37623-.01055.80531,0,.80593.00297.80593.82309.0012,1.78013.0012,3.56211,0,5.34392q0,.78478-.76943.78659c-7.63905.00119-15.28029-.00998-22.92056.00998-2.18317.00479-4.28622.45068-6.17928,1.58902-2.31075,1.38949-3.72812,3.37267-3.63215,6.16127.08061,2.32491,1.30434,4.06206,3.16149,5.36749,1.60369,1.12608,3.42564,1.70544,5.35631,1.91073.98131.10475,1.97199.12604,2.95799.12816,4.39566.01298,8.78904.00722,13.18122.00722q.88784-.00191.8936-.91667c.013-2.41443.03246-4.8298.02356-7.24423-.00287-.47401.11473-.65758.62597-.653,2.23604.02641,4.47279.02548,6.71061,0,.48892-.00458.59882.17658.59776.62129-.01068,4.83052-.01525,9.66091.00576,14.48964.003.58477-.23172.6883-.73877.68592-4.11587-.01296-8.23249-.0082-12.34826-.0082,0-.01764-.00168-.0389-.00168-.05895h0Z"/><path class="cls-1" d="M363.02016,47.19629h-12.17301c-.87404,0-.87645-.00238-.87645-.89675v-14.0729c0-.80723.00241-.80723.82299-.80723,2.07844-.00119,4.15745,0,6.23599,0q.87694,0,.88004.85071c.00409,2.39377.02524,4.78994.00698,7.18417-.00466.56831.1278.78357.75475.78119,4.96771-.02884,9.93516.02835,14.90385-.03629,2.63783-.03422,5.12518-.71774,7.23722-2.40145,1.64188-1.31081,2.64663-3.00856,2.68483-5.13705.03955-2.32615-1.04595-4.13502-2.87786-5.50685-1.59253-1.1925-3.42613-1.78919-5.38228-1.97441-1.13891-.10882-2.29067-.12405-3.43511-.12648-7.00712-.01055-14.01313-.00528-21.01947-.00528q-.80954,0-.81194-.81652c0-1.82074.01417-3.64211-.00936-5.46345-.00709-.51294.15881-.68362.68111-.68362,8.11607.02532,16.23328-.10584,24.34359.09537,5.09748.12457,9.7562,1.7566,13.31993,5.68051,4.57049,5.02756,4.48413,12.73354-.15519,17.69809-2.74499,2.93795-6.1853,4.56036-10.08611,5.20171-1.76384.29119-3.57393.38237-5.36666.41889-3.22433.06402-6.45042.01764-9.67785.01764h0Z"/><path class="cls-1" d="M302.405,41.1173c0-1.46409-.00222-2.92902,0-4.39264.0142-7.9555,4.25346-14.10135,11.67823-16.95798,3.1598-1.21604,6.43816-1.76319,9.80733-1.62316,5.2064.21706,10.00676,1.66783,14.05899,5.08219,3.29675,2.77805,5.30287,6.32295,5.80063,10.61219.23765,2.03318.20703,4.10039.24236,6.15408.03867,2.19675-.00362,4.39386.01942,6.59133.00292.47292-.14893.62356-.60952.62118-2.25727-.01542-4.51398-.01829-6.77066.00119-.50238.00455-.62946-.18525-.62527-.66143.01632-3.04844-.02294-6.09702.01513-9.14544.06487-4.9451-2.26545-8.37077-6.72764-10.24208-4.74392-1.98952-9.51079-1.87315-14.0131.77299-3.33565,1.96264-4.92912,5.03993-4.98933,8.88202-.05163,3.22549-.02284,6.45125,0,9.67858.00435.53997-.14751.724-.69868.71655-2.21498-.02354-4.43292-.02354-6.64777,0-.52952.00455-.67297-.17348-.6636-.68711.02995-1.80021.01179-3.60041.01179-5.40246h.11169Z"/><path class="cls-2" d="M73.51692,46.45727h42.1827l-19.96715,19.04185c22.36812-3.78615,43.56068-14.3449,45.14189-28.80268,0-.99659-.14415-1.96262-.39053-2.89025h-53.91159l-13.05533,12.65108h0Z"/><path class="cls-2" d="M67.53451,53.29559l.00829-.0036c-19.76245-1.08583-44.37596-7.17108-44.37596-16.8226,0-10.81867,28.54728-17.07466,50.91252-17.07466,6.82233,0,13.66712.53073,19.89061,1.569l11.39998-11.40033c-6.35959-1.59732-16.94115-3.62108-31.15246-3.62108C42.8422,5.94232,8.20714,17.19454,6.58304,36.63651c0,19.75944,36.95456,30.64456,68.32975,30.64456,2.81696-.01645,9.01512-.14992,10.87875-.48891l12.77062-12.77063h-8.8455c-7.17658.10654-15.2408-.23341-22.18216-.72594h0Z"/><path class="cls-2" d="M125.16942,10.51755C109.74147,2.94276,90.60668,0,73.5222,0S37.30222,2.94276,21.87488,10.51755C11.7086,15.50978,0,24.35647,0,36.76059s11.7086,21.25081,21.87488,26.24301c15.42734,7.57603,34.56272,10.51814,51.64733,10.51814s36.21926-2.94211,51.64721-10.51814c10.16628-4.9922,21.87488-13.8383,21.87488-26.24301s-11.7086-21.25081-21.87488-26.24304h0ZM124.03458,60.69284h0c-15.15382,7.44062-33.74191,10.25447-50.51238,10.25447s-35.35868-2.81385-50.51237-10.25447c-9.12215-4.47997-20.4354-12.63776-20.4354-23.93225,0-11.29524,11.31326-19.45301,20.4354-23.933C38.16352,5.38877,56.75234,2.57322,73.5222,2.57322s35.35856,2.81555,50.51238,10.25437c9.12203,4.47999,20.43552,12.63776,20.43552,23.933,0,11.29449-11.31349,19.45228-20.43552,23.93225h0Z"/><text class="cls-3" transform="translate(162.81958 11.40134) scale(3.0063 1)"><tspan x="0" y="0">PORTUGA</tspan><tspan class="cls-4" x="51.51552" y="0">L</tspan></text></g></svg>