<?xml version="1.0" encoding="UTF-8"?><svg id="artwork" xmlns="http://www.w3.org/2000/svg" viewBox="0 0 1521.21827 341.81575"><defs><style>.cls-1{fill:#fff;}.cls-2{fill:#e3000f;}.cls-3{fill:#494b52;}</style></defs><rect class="cls-1" width="1521.21827" height="341.81575"/><path class="cls-3" d="M474.79919,219.36614h37.96594v-11.05499h-25.89294v-34.04303h18.76697v-10.61597h-18.76697v-30.11499h25.89294v-11.05701h-37.96594v96.88599ZM287.93945,122.47984h-23.565v96.88702h12.07404v-40.00604h11.49097c12.36499,0,19.49402-6.54498,19.49402-19.77997v-17.16803c0-13.383-7.12903-19.93298-19.49402-19.93298ZM295.21448,160.30583c0,5.38104-2.039,8.58398-7.13104,8.58398h-11.63495v-35.49597h11.63495c5.09204,0,7.13104,2.90802,7.13104,8.43903v18.47296ZM346.27423,120.73863c-14.83795,0-22.83997,10.17999-22.83997,23.854v52.66101c0,13.82196,8.00201,23.85901,22.83997,23.85901,14.83704,0,22.83704-10.03705,22.83704-23.85901v-52.66101c0-13.67401-8-23.854-22.83704-23.854ZM357.04028,198.56566c0,6.69299-3.64001,11.492-10.76605,11.492-7.27496,0-10.76697-4.79901-10.76697-11.492v-55.28003c0-6.54498,3.492-11.49396,10.76697-11.49396,7.12604,0,10.76605,4.94897,10.76605,11.49396v55.28003ZM437.70105,193.03716l-10.32697-70.55701h-10.474l-11.63904,70.55701-8.14502-70.55701h-12.21899l13.96503,96.88599h11.63702l10.91199-64.737,9.89099,64.737h11.63702l15.27399-96.88599h-11.63904l-8.87299,70.55701ZM768.06817,169.76207c7.12903-1.89105,10.32703-7.12903,10.32703-15.71301v-12.07599c0-13.383-6.83801-19.49304-19.20001-19.49304h-23.71301v96.88599h24.14703c12.36499,0,19.349-6.11096,19.349-19.49396v-14.25598c0-8.29004-3.05603-13.96704-10.91003-15.854ZM747.70422,133.39403h11.49097c5.23602,0,7.27203,3.05304,7.27203,8.14502v14.40198c0,6.11005-3.05304,9.45703-8.58099,9.45703h-10.18201v-32.00403ZM766.90423,200.45403c0,4.94501-2.18201,8.00299-7.27502,8.00299h-11.92499v-33.31598h10.61798c5.52698,0,8.58203,3.34601,8.58203,9.45703v15.85596ZM830.83215,122.48076l-13.09204,44.95001-13.09198-44.95001h-12.51001l19.05499,58.33795v38.54901h12.07605v-38.54901l19.4939-58.33795h-11.93091ZM574.6322,207.87737v-20.66003c0-6.98401-3.203-13.52899-10.76605-15.12897,7.711-1.89203,10.328-7.12903,10.328-15.42004v-14.69495c0-13.383-6.98199-19.49402-19.349-19.49402h-23.70795v96.88696h12.21899v-42.479h10.90997c5.672,0,8.28998,3.78503,8.28998,9.60205v22.11298c0,9.01801,3.34705,11.63702,12.22003,11.63702h3.20001v-8.58405c-2.47101,0-3.34399-1.164-3.34399-3.77795ZM562.12018,157.68633c0,6.11102-3.19897,9.45703-8.58197,9.45703h-10.18201v-33.74902h11.34595c5.23602,0,7.41803,3.05304,7.41803,8.14502v16.14697ZM673.19696,122.47966h-23.12799v96.88599h23.12799c15.27502,0,21.82001-9.45697,21.82001-23.71002v-49.46295c0-14.25604-6.54498-23.71301-21.82001-23.71301ZM682.94299,195.80065c0,7.99799-3.05505,12.21698-10.328,12.21698h-10.32703v-74.18695h10.32703c7.27295,0,10.328,4.21698,10.328,12.362v49.60797ZM593.88019,219.36614h37.96698v-11.05499h-25.89301v-34.04303h18.76599v-10.61597h-18.76599v-30.11499h25.89301v-11.05701h-37.96698v96.88599Z"/><path class="cls-2" d="M255.49786,163.3358c-.13275-.42889-.28613-.78741-.46716-1.09064l-.15387-.55566-1.23694-1.10822c-.72864-.617-1.49896-.90411-2.42371-.90411l-.16644.00299c-.39069.00958-.78693.06793-1.18817.17603-.77692.22076-1.28021.4812-1.84241.97351-.5863.60388-1.16052,1.1449-1.71014,1.61053-.18805-.12872-.38214-.24384-.58026-.34393-.46613-.46411-.89807-.9715-1.28729-1.51355-.40424-.55511-.69989-1.13135-.87744-1.71265l-.52899-1.72723c-.15033-.4928-.27753-1.02325-.39673-1.65582l-.31177-1.05896c-.04419-.69043-.15033-1.30084-.32227-1.86053-.09607-.31726-.14984-.57922-.23035-1.1203l-.00751-.05328-.01562-.05182c-.06335-.21619-.10608-.43994-.13074-.68738-.05731-.55359-.16339-1.08563-.31476-1.57739-.07996-.26349-.14935-.53198-.2016-.81207-.086-.45105-.19611-.89154-.32385-1.30084-.11969-.40326-.26849-.81256-.47266-1.29932-.11212-.25647-.21271-.55109-.31128-.87445l-.01959-.06586-.38568-.75421-.19257-.19061c-.53351-1.14648-1.54523-1.95953-2.92151-2.31152l-.60187-.10358-.17651.00098c-.13574-.03064-.27606-.05481-.41785-.07391-.59637-.29211-1.23749-.43994-1.90778-.43994l-.11212.00146c-.39575.01056-.78796.07245-1.19928.18756l-.46307.13074c-.27356.07843-.53802.18207-1.10828.43445l-1.88312.76129c-.81659.34094-1.57788.81915-2.05609,1.28876-.67981.48425-1.30035,1.05396-1.8479,1.69659-.48779.57928-.88904,1.12787-1.0932,1.49243-.71954.86688-1.40643,1.82123-2.04248,2.83545-.61749.97803-1.22845,1.98071-1.94897,3.21564l-.0282.04828-.02063.05182c-.11963.29614-.23633.55664-.34894.79248-.21118.45105-.30371.75018-.34192.94983-.263.45105-.48425.84729-.66327,1.20081-.15186.29663-.60089,1.30029-.41534,2.42816l-.09802.24237-.51392.83472-.03668.10608c-.24841.29669-.49634.65271-.83472,1.28326l-.02966.0553-.73114,2.13757c-.15387.60138-.34796,1.16608-.57623,1.67645-.20618.45758-.38818.91162-.55212,1.37872l-.27808.11066-.16394.82111-.67981,1.77252-.01257.08093c-.02411.15234-.05029.2514-.06738.30676l-.40576.41229-.05585.2771-.05682-.18506c-.13928-.4621-.2323-.86792-.28558-1.24652-.05481-.37109-.08398-.77338-.11115-1.53821l-.00201-.06085-.39117-1.9751c-.03827-.41235-.0835-.7301-.16797-.97601.02362-.18201.03015-.36908.0191-.55963.06036-.44.0307-.90662-.0885-1.39087-.02765-.58936-.08551-1.16455-.17096-1.70862-.07037-.45813-.11212-.92523-.1438-1.62219-.05933-.50183-.13428-.97797-.22882-1.46375-.0332-.1579-.05328-.37158-.04474-.98456l-.13025-1.53613c-.01758-.54913-.02661-.99866-.01959-1.34711.0141-.70697-.11115-1.37323-.43292-2.29797l-.02216-.06384-.0332-.05933c-.14276-.25543-.1795-.37109-.2016-.43646l-.13678-.34747c-.05933-.54053-.21472-1.21033-.48474-2.09027l-.2851-.93628c-.02313-.0744-.05585-.21625-.07843-.46863l-.00507-.05383-.15533-.65869c-.23181-.75677-.73969-1.28125-1.65686-2.04303l-.39978-.32935-.78943-.22028c-.87195-.6532-1.70514-.79449-2.26123-.79449l-.1076.00104-.57025.05835-.2655.07086c-.23181.06488-.39117.10358-.49829.12421-.18256-.03772-.38318-.05682-.63611-.05682-.00806,0-.41284.02014-.41284.02014l-1.8313.6366c-.28711.0694-.55414.18152-.81311.34143-1.02075.3208-1.91779.88293-2.70874,1.71716l-.25446.31982-.06738.12366-.1825.09503-.09003.02515-.11566.19714-.73059.28204-.29968.62305-.28461-.25293-1.18671,2.06415c-.17346.11914-.55969.37256-.55969.37256l-.24084.29419c-.31177.38568-.59283.78741-.83417,1.1922-.15588.25897-.28564.53705-.38818.83124l-.5672.25946.0412.56818-.28357.37512c-.33539.44202-.59741.94183-.77991,1.48639l-1.06903,1.52863-1.17365,1.76593.04529-.01306-.37866.55762,2.02441-.55859-.18604,1.33649c-.67279.33136-1.23248.84979-1.64124,1.52814l-.16547.27759-.10406.35852c-.01813.06683-.03723.13525-.0528.20563-.48578.7301-.77991,1.49445-.87396,2.2688-.02661.19611-.07996.41687-.15082.72058l-.09607.42139-.11768.09851-.20917.35553c-.30066.50684-.45453,1.05292-.45306,1.59851-.10858.14734-.20514.29266-.29059.43945-.11768.20166-.21472.42242-.29218.66577l-.21423-.71655-1.7644,2.92853-1.81226.51593.15894.51337-.07495.02264.37561,1.28326c-.17096.41479-.26447.84021-.28009,1.26965-.17999.22223-.60486.73413-.60486.73413l-.06738.76733c-.03925.44751-.12372.68585-.177.80151l-.80756,1.85443-.0166.07843c-.05682.27356-.08044.55115-.07043.82465-.00201.00909-.00397.01813-.00598.02716l-.09705-2.70526c.1875-.51086.26599-1.06299.23376-1.65027-.00751-.11267-.00049-.21924.02167-.32587l.0719-.34595-.02917-.35699c-.01813-.21625-.02667-.37408.01208-.66876l.15283-.42242-.01355-.16742s-.07947-.97498-.0885-1.23193c-.00708-.24738-.03168-.50134-.07245-.75677.07898-.36353.14532-.75726.20618-1.23297l.15692-1.45319-.02515-1.66083c-.00104-.42847.04071-.64972.06787-.75427.11865-.47522.20667-.95941.26147-1.43964l.00702-.06335-.04224-.85382-.11011-.35748c-.0191-.15186-.04224-.2962-.07642-.45508.03717-.23132.04974-.46863.03668-.7085l.10059-.50787-.091-.3183c-.00806-.19159-.0332-.38721-.07648-.59332.02515-.96393-.03217-1.95105-.17041-2.93457-.07947-.57123-.13879-1.12787-.18658-1.57385-.02264-.21118-.04272-.39874-.06134-.55316.15234-.82764.12067-1.604-.09406-2.30902-.26849-.87994-.80096-1.62616-1.54419-2.16669l-.52344-.78143-.57825-.28406c-.53552-.26349-1.08362-.39728-1.62872-.39728l-.77136.03674-.15936.0437-.46918-.01959c-.29315.00757-.57977.04376-.95233.1745-.37061-.17499-.7804-.26599-1.20581-.26599l-.09302.00049-.51489.05231-1.21637.32581-.10461.17548c-1.04791.41992-1.76593,1.26416-1.98822,2.35278l-.06635.31476.29163,4.25.02466.08197c.005.01709.0141.04828-.02814.15991l-.19867.51788.086,1.03534-.19861.07898.27905.88898.12823,1.53467.14832.07947c-.00854.17749-.01154.36053-.008.55011-.11615.44751-.14282.91815-.07849,1.40289-.04425.17096-.07489.34546-.09247.52344l-.30475.09955.29016.93982-.01007.05078c-.23682.63959-.26953,1.35968-.1001,2.1944-.02863.1604-.04974.3183-.06079.47217l-.19214.61743c-.07135.35101-.16492.68237-.27856.9856-.31628.84729-.32886,1.78857-.0387,2.95312-.03973.66077.02014,1.33557.177,2.00635.02112.09149.02063.1991-.00104.32782-.28857.59436-.34796,1.28931-.17694,2.0697l.00098.54205c-.0694.56012-.07294,1.1424-.01007,1.73779l.09753.84271c-.01251.32587.01007.6889.06592,1.06702l-.39825.81665.29865.92218c.01208.12872.0307.25848.05737.39923l-.16443.40631-.09052.44751.0603,1.02277.05786.19409-.03418.28766.16241.54102c.10608.35907.28259.70703.56262,1.10425,0,.18604.01312.37408.03925.56018.00354.02515.00653.04926.00958.07239-.01715.07141-.03119.14282-.04425.2132-.45459.76129-.56268,1.66034-.3017,2.54437l.41479,1.35059c.09003.29565.16241.63055.22076,1.0238l-.02313.32483c-.04022.75726.01208,1.34253.16541,1.84741.07581.24292.17316.45465.27393.66022-.62714.26019-1.1792.76001-1.67462,1.53613-.26044.26654-.48224.57727-.66119.92523-.13934.15186-.43451.47571-.58783.65771-.03571.02814-.07092.05835-.10461.08752l-.15887-.05029-1.11176,1.71765c-.00507.00604-.01257.01611-.02368.03021l-.51587.20917-.47168.85681c-.0719.13477-.13226.27051-.18201.41132-.21674.20117-.41333.44153-.58734.71906-.03619.02515-.07037.05029-.10205.07544l-.94135.44653-.38617.64764c-.29266.23633-.54358.48975-.74823.75623-.16638.1167-.32129.25244-.46411.40533-.5918.38312-1.05292.80756-1.40491,1.29126-.10858.11462-.20715.23633-.29468.36206-.17194.0694-.33588.14679-.48523.23029-.29816.15991-.56213.36707-.78693.61646-.29364.12268-.56873.28864-.82111.4978l-.22375.18805-.07495.07849c-.04224.03015-.08551.06232-.12872.0965l-1.29028.44153-.15387.62854c-.12018.07642-.24988.16492-.3927.26648l-.0528.03821-.04578.04626c-.21771.21924-.40076.38019-.5531.48779-.19208.13373-.3681.26849-.53101.40729l-.37408.10858-.44855.44757c-.19812.20007-.34497.33789-.74573.56012-.34241.09753-1.03284.3158-1.6347.80353-.43042.15289-.82617.3902-1.17212.72412l-.03516.04224c-.07898.03516-.15942.06433-.23938.08545l-.06787.01813-.74921.354-.20013.14679-.94135.30676-.64062.33087s-.15637.06836-.1795.07843l-.29211-.03925-.77838.2464-.37964.08447c-.1861.05328-.36609.12469-.53809.2132l-.22626-.09253-.42993.01111c-.20917-.04529-.42889-.06842-.69843-.06842h-.0025c-.44049-.08142-.82166-.177-1.15656-.28961-.46509-.15991-.84271-.28058-1.12683-.35803-.15186-.14484-.40479-.36804-.65619-.51086l-.19159-.18707-.34497-.17499c-.38165-.19208-.6994-.39923-.88849-.52795l-.72156-1.61615-1.03583.02618c.06335-.49377.00299-1.04694-.18152-1.65131-.15137-.48578-.3797-.89911-.67987-1.23297-.05579-.28864-.13623-.61145-.2464-.98859l.01862-.32886-.15588-.51788c-.10254-.34601-.2655-.66278-.48523-.94434-.03265-.20917-.086-.39325-.16089-.55011l.00549-.20416-.0885-.29669c-.02258-.3429-.08899-.68884-.2016-1.0509l-.23083-.75525-.09753-.26349c.02563-.38818-.00452-.78949-.0885-1.19775l.09351-.4455-.20111-.66681-.1579-.31073c.11316-.54907.09406-1.08514-.05933-1.60303l-.18555-.60242.15839-.24133-.27753-.888c.02515-.35706-.00201-.69995-.08447-1.08014l3.34888-1.01367-3.31323-1.5769.6698-3.02203-1.14343.47162c-.00201-.008-.00354-.01709-.00507-.02515l.0976-.45154-.25397-.83069c.02869-.1629.0448-.33087.04877-.50385l1.36072-4.02167-1.44116.41937-.06335-.20618-.13324-.35498.1051-.3017.13074-.888.16693.00702.65167-.06635s.23029-.06134.34393-.09357c.19006-.01605.59436-.05426.59436-.05426l.29364-.08051.25696.17499,1.33856-.39923,2.24011-.82367-.09601-.31775.22577-.09454c.34894-.12469.69391-.31073,1.02625-.5531.14435-.10663.27911-.20923.40332-.30975l.11713-.01007,1.38129-.4425.25397-.50586.31122-.24237.62305-.2655.08997-.14178c.42792-.19708.85236-.47467,1.31848-.86987.09052-.03223.2207-.07446.40173-.12469l2.28442-.62756.09705-.1629,1.71216-.4928-.1886-.58026,1.46277-.55713.49731.5058.50983-.84674,2.23462-.60645-1.25757-.63757.87036-1.3783c.36761-.1297.6889-.27954.97552-.45404l.94733-.42291.19916-.5531c.15735-.16394.29565-.35345.41284-.56671l.2348-.08191.16742-.31482.01312-.00854c.30823-.20111.59985-.42084.82812-.62299.1217-.1026.24487-.19812.37061-.28058l.46008-.29871.34094-.55963.04779-.172.89453-.39972-.19312-.64514.08447-.14886c.16095-.28308.26501-.58832.30975-.90912l.28058-.94232.68085-.49982-.01556-.0498.34344-.12921-.43147-1.35059.73115-1.20935-1.98773-1.27771c-.67578-.43243-1.40796-.65167-2.17529-.65167l-.11865.00104-.69794.07941-.69141.19061c-.00403-.00153-.00806-.00354-.01202-.00507l-.27155-.59784-1.28979.38312-.08246.00555-1.1922.35352-.21625.35651c-.29614.15887-.59033.36456-.89154.62347l-.05176.04376-.06787.0835c-.07343.02863-.14532.0528-.21826.07239-.48022.13629-.91669.34698-1.29834.62756-.29968.11969-.58228.26294-.84424.42938-.22577.14484-.55359.37915-.7774.58783l-1.57739,1.0957c-.43494.14478-.83667.37109-1.19672.67529-.17096.10309-.3324.22577-.48224.36554l-1.56885.53857-.0387.01709-.16492-.00104-.11218.12372-.36505.16193.05383.1825-.04022.0448c-.10913.04926-.33539.14276-.74774.27606-.70648.22827-1.30585.46307-1.83435.80652l-.30121-.14429-.84021.70898-.86139-.42438-.78992,1.24902c-.24792.10205-.46814.20715-.66425.31677-.26501.14282-.54858.31732-.84979.52246-.46918.15839-.92926.36658-1.36322.61694l-.18701.10461c-.25092.14032-.41888.23383-.54059.31677l-.19354.06592-.65973.04724-.25293.07141-.50989-1.68854c-.00201-.00702-.04272-.16846-.09454-.66925.04224-.27911.04877-.55518.01959-.8252l.14484-.3067-.13629-.43445.10864-.25793.0528-.22229c.49329-.96545.20569-1.91882.06384-2.38245l-.16742-.44299-.00403-.05981c.04779-.26147.06238-.53198.04321-.80756l.14331-.23987-.30316-1.00061.05829-.20923-.04425-.14478.1167-.3374.01459-.33893c.01709-.30524.01355-.60242-.00958-.88849.73413-.70398,1.07507-1.52112,1.06299-2.53583l.50739-.8493-.07043-.22675.06036-.12469-.28461-.97803c-.09705-.33588-.25244-.60138-.38568-.79401l-.08044-.28809.01056-.11871.46515-.77637-.28918-.9433c.45105-.60089.75476-1.54974.31378-2.98083l-.09454-.38416-.19708-.26648c.04175-.37158.03217-.71655-.02966-1.08063.04224-.37256.0332-.76074-.03015-1.16656-.00555-.03015-.01007-.0603-.01459-.09052.16693-.61096.16895-1.31744.00653-2.10638l.11011-.32281c.01056-.00806.02063-.0166.03119-.0246l1.08459-.29871-.06036-.18604.12323.03668.54706-.47717c.2464-.1051.81915-.28662,1.14496-.38971.97955-.31476,1.87457-.57874,2.67206-.80658l1.25659-.35297,1.16406-.38116.18457-.33685.53101-.14789.80048-.29767.258-.22626c.29163-.08899.56165-.19659.80554-.32184l.58527-.18152c.7915-.22473,1.55225-.53699,2.26276-.92822.44604-.2464.98157-.48926,1.63776-.74268l.60443-.23334.03619-.00299.16541-.04779.22882.00201.33435-.09204c.74469-.20966,1.80115-.60187,2.37793-1.58136.04321-.07245.0835-.14233.12067-.21021.16193-.09607.3927-.23181.5144-.30371.33789-.10358.64813-.25598.92773-.45605l.25592.12164.88049-.24286c.54504-.15234.85938-.21368,1.06702-.25043l.34497-.00854c.21417-.00452.42236-.03571.69489-.10406l.09454-.02362.91669-.50085.76379-.32434.26196-.3736c.41534-.29114.74774-.6557.98102-1.07104l.03876.09607,1.84088-.04675.35797-.02765.2605-.06842c.40375-.10809.76532-.2851,1.07758-.52649l.65167-.18903.39124-.3324.36505-.10358c.60944-.16394,1.13239-.48572,1.51703-.93378.18604-.1629.34644-.34747.4787-.55157.05383-.04828.0885-.07391.08246-.07391-.00098,0-.00146,0-.0025.00049.25793-.1026.53052-.19061.8302-.27405l.45856-.13025c.34045-.01862.70648-.08545,1.12384-.20361l.14032-.03473c.32581-.01611.66876-.07593,1.03784-.18054.24988-.06683.48425-.15582.70044-.26599.15289.0257.31024.03876.47064.03876l.10309-.00104.59991-.06488.27252-.08044c.22626-.06586.44098-.16138.66626-.29919l1.21283-.3399.3158-.20813c.09552-.06189.19409-.12622.28607-.19611l2.14563-.63812-.14832-.48926c.23279-.07794.43341-.16492.59033-.27405l.26648-.0719c.25494-.07141.48572-.15088.74268-.25793l.41284.06732.77283-.0025.56268-.17346,2.16119-.9624-.05884-.1936c.10309-.02362.21173-.05182.32733-.08502l2.4046-.67126c.23785-.06989.44849-.15137.6391-.24689.17798-.01459.37006-.04376.60742-.08197l.53601-.06384.25848-.06989c.97699-.27307,1.74127-.76733,2.39648-1.55225.0166-.01312.03271-.0257.04877-.03876l5.7605-1.58997-4.96954-2.33618c-.26044-.66022-.76929-1.16907-1.4245-1.43304l-.25043-.80151-3.4223.98352-.27759-.6225-1.78149.04425c-.16296.00452-.32941.02362-.46265.03973l-.08344.01105c-.57678.01355-1.16107.09906-1.75342.25946-.13275.03925-.25842.07996-.37811.12268-.05328-.00653-.10608-.01154-.15991-.01556l-.29614-1.00519-.89459.2514-.27051-.03821-1.98016.56067c-.19208.02667-.41785.05328-.68536.08099l-.06635.00702-1.18719.33789c-.24036.06641-.43396.12921-.59741.19458l-.61292.18054c-.14935.02063-.31628.05328-.54865.11664l-.29211.10211-.21021.00702-.45404.04926-2.69373.75378-.1131.0025c-.20166.00452-.40131.03369-.7251.11865l-.77686.28412-.19513.10406-.97095.27106-.54663.03723-.29517.08295c-.26245.07794-.57776.172-.81812.34442l-.47467.1358c-.71954.20062-1.23492.41534-1.68048.70197-.14075.09302-.31274.21167-.51288.35297l-.23077-.0141c-.37415.01007-.75226.07141-1.14948.18658l-1.44666.40479c-.49634.13525-.99011.32178-1.51154.57123l-.40228.19305-.14331.04376c-.21423.05432-.54559.16742-1.00464.34692l-.33691.13531-.61548.14832-.80255.81812c-.25439.06989-.69342.19458-1.48035.41833l-.67578.27307-.24939.21417c-.42493.13177-.80255.29517-1.10577.47821l-.2132.07092c-.50586.01959-.94531.08344-1.33905.19458-.3183.08954-.64868.20868-.95892.34296l-.59381.23328-1.11029.50385-.51038-.06134-.40375.68335c-.14783.07544-.28461.15436-.41388.23834-.12115.04626-.24182.09705-.32886.13831l-.60944.20715-.58881.16443c-.69189.19312-1.32996.49829-1.89917.90759-.11566.0448-.24792.09808-.40631.16498l-.5094.06085-.26801.07135c-.52795.15137-.98804.3902-1.37024.71106-.09705.03717-.19507.06934-.29663.09851-.37512.1076-.72308.25543-1.03735.44-.25244.04926-.57776.12622-1.00415.24792-1.09167.30316-2.30554.69891-3.72504,1.21582l-1.34058-.03369.99817-1.66138-3.40723-.53247c-.52747-.71301-1.35315-1.13092-2.28235-1.13092-.00153,0-.06592-.00195-.14331-.00452l-.04932-.10657-.05981-.02869-.06134-.21368-1.05042-.50183-.88751-.31982-.53955.01361c-.24591.00598-.48572.04169-.73364.11011l-.08801.02466-1.422.78589-.39325.65021c-.35651.36304-.67578.7854-.97192,1.28473l-.31378.52246-.05029,1.03931-.47418.79352.22125.74872-.16547.28412.3103,1.01569s.06433.22778.06586.2323c-.12823.60193-.0885,1.2149.1131,1.74786-.0462.26703-.07135.54358-.07391.83173.00055.04272-.00348.16541-.05933.46106l-.005.05334c-.10559.09503-.22424.20764-.35498.34039-.63312.35553-1.25861.77588-1.91785,1.30133l-.55914.55566-.06689.19159c-.18048.10706-.35803.23328-.53448.37964-.18506.16187-.41187.38715-.63458.63654l-.44501.42542-.11469.55865c-.28461.52698-.4093,1.14246-.38165,1.87811l.00256.05579c-.18304.44501-.24542.92725-.18506,1.43762-.06891.43646-.03217.89557.12769,1.39136l.51294,1.19019.39423.21118.43243.77539,1.17963-.02814c.2132.19708.46008.38513.73212.55762.37616.24487.7442.40527,1.18317.50787l-.00403.02814c-.12921.46161-.13019.9715-.00201,1.55377l-.10406.53857.03369.10858c-.05078.31073-.05933.62048-.02515.92218-.00098.14185.00507.28564.02112.4325-.03516.22174-.06635.45404-.10406.73212l-.0141.10309-.22577.67377.30878,1.00818c-.10107.59033-.06891,1.18115.09198,1.70667l-.39069,1.3551.38263.51343c-.01459.12317-.02209.24786-.02313.3736-.30719.52246-.45856,1.06451-.4505,1.61261-.07648.56061-.04626,1.05188.10559,1.54114l.07941.20972c.0141.44299.11816.83618.2077,1.13391-.01556.17096-.02161.33234-.0191.48871-.16492.51093-.21625,1.00873-.15387,1.48236l-.27808,1.36725.14734.48273.03369,2.12695.07843.2605c.005.1579.02362.3208.05682.50079.0025.49377.12518.89203.18854,1.09869l.0116.03674c-.07343.44049-.06134.91266.03467,1.35364l-.05078,1.11072c.01611.58533.05585,1.07306.12073,1.48541-.08148.28156-.16046.69287-.08301,1.07709l-.17847.50385s.19861.62952.27802.87292c-.01758.33887-.00397.69794.04126,1.09015-.06891.42438-.05933.91315-.0191,1.5849l.06537,1.02478c-.00201.03522-.00305.0694-.00403.10358l-.25848.4375.30121,1.00665c.02667.09253.05585.17999.08704.26349-.00659.11566-.00909.22827-.00659.34497.00604.15082.02417.31476.05432.48773-.005.03522-.00903.07037-.01208.10461-.1106.44147-.11865.90106-.02563,1.34357-.09149.52899-.11163,1.00464.04077,1.53766l.01459.05029.03265.07343c-.01556.11261-.02515.22626-.02917.33887l-.32129.5451.44397,1.45215c-.01508.19714-.01202.39728.00806.59741l-.20917.33887.31781,1.05096c.10205.33289.1413.56921.15387.7251-.06488.2655-.086.54608-.0639.84875-.12115.50885-.11261,1.06403.0257,1.65533-.01764.24341-.00507.49481.0387.76233-.02814.48169.02765.97345.1825,1.51855-.01654.41736.02869.86084.14282,1.40491-.00806.13373-.00549.27454.00757.42438-.11066.56116-.08246,1.14246.08093,1.65936.07239.59338.54559,4.46216.67987,5.492l.00854.06537s.19354.62653.29059.93225c-.03369.41132.0166.84979.15137,1.31439-.09351.47467-.06885.97046.08197,1.47131l.17499.48676.086,1.00366.14429.9101.08398-.02411.41083.97345.07892.1217c.04877.28162.09906.5481.15289.78845.10455.50787.22272.96747.34845,1.3808l.07037.22931c-.22321.70697-.091,1.31036-.02307,1.52759l.25995,1.04791.65216.32983s.05432.17603.06641.2132l-.68793.16296,3.0824,3.06628c.22729.22424.43396.40527.6366.55713l.42889,1.07709.77185.12268c.30273.47668.67535.77539,1.01727.9624l.41882,1.42303,1.22241-.36707,1.08459,1.06903,1.02832-.0553.58276-.00201.14233.07642.24841.80255,1.27417.35699c.32886.09149.64667.15686.95892.20111l.27905.9574,2.08575-.59229c.27655.05627.58179.08746.93677.09448l1.56787-.07239.06384.02417.55463-.01312c.29419-.00702.5838-.05225,1.00269-.17395l.92621-.38519.1076-.05432.69037-.04321.41992-.11664c.23779-.06439.46613-.15387.68134-.26752.27051-.02417.54504-.07544.83771-.1579.31628-.09357.617-.21826.91364-.38013.1167-.06238.25195-.14185.40631-.23639.14331-.05627.27759-.11761.40326-.18402l1.99426-.59735.68286.17902.28809-.48578,4.69653-1.51251-1.49799-.71704c.28961-.17798.54407-.39624.7558-.65167.55914-.19812,1.07001-.54102,1.52057-1.02075l.25543-.26953c.43195-.14984.84375-.39624,1.25208-.74823.02008-.01709.04022-.03418.05981-.05127l.61243,1.6825,2.15668-3.67072.54309,1.57794s2.44775-3.93622,2.87567-4.61707c.17853-.10156.34698-.22125.50385-.35699l.57324-.12469.47919-.8136.62604-.75024,1.12891-.45355-.0141-1.36774c.59637-.42535,1.0343-.98151,1.2757-1.6181l.11011-.03015,1.06451-1.46326.32281-.56219.52795-.21619.10864-.95941c.84277-.3349,1.2973-.86591,1.53967-1.29736l.12701-.16296c.38037.24036.81708.42554,1.31696.54413l2.85358,1.42908c.52399.45557,1.17969.79749,1.95154,1.01971l.09052.02618.99908.03717.6698-.18604.17999-.1106.07648.01007.6416-.03723.28058-.07642c2.1662-.60645,2.76862-2.05157,2.93054-2.93158l.32629-.72205.02216-.45959c.01257-.25043.05835-.49579.14026-.74921l.42041-1.31848c.09198-.45154.18958-.888.29315-1.31134.04926-.20618.11914-.38318.2464-.60345l1.08862-2.27679-.6748-.34296c.49176-.63153.72607-1.40289.66321-2.18732l.03925-.0694.22931-.48676,2.4101,1.15851-1.4809-4.96698.0141-.11261.00452-.13983c.05432-.33185.06335-.66272.0282-.98859l.33087-.79144-.25696-.80249c.271-.28058.48871-.61652.64764-.99963l.17047-.06537.50934-.94232.29169-1.17365c.39069-.5722.56061-1.26917.48065-1.97516l.26752-.711s-.19305-.63861-.28558-.93524c.13226-.36707.23077-.71906.29919-1.06604.05933-.29163.09399-.57324.10657-.86688.62756-.50684.98456-1.07507,1.12384-1.48438.16693-.29065.29565-.56519.39325-.83972l.02112-.05933.20715-1.14648-.00702-.02209.19958-.32886c.25598-.27155.48273-.56921.67737-.89105l.2373-.39825.07495-.45355c.11212-.67432.28607-1.29633.51538-1.84241.3017-.70496.60992-1.36615.98352-2.11035l.33344-.73871.1076-.65967c.31879-.37061.55713-.80859.6969-1.28278.13629-.26099.24994-.50836.35956-.76428.38562-.48474.65869-.96851.83466-1.48187l.06641-.18958c.05731-.16193.1297-.36505.22473-.66779.70148-.58832,1.23199-1.30737,1.57892-2.14203.13074-.31781.28058-.58887.48376-.8634l.03571-.05731c.01306.0578.02612.11414.04022.16943.03168.90112.08545,1.76398.1604,2.565.08398.9101.28156,1.88513.60089,2.93909l.18805.51636.44147,4.65979c.14685,1.02228.32635,2.08325.5481,3.24377.21924,1.14447.46716,2.297.76935,3.56512.0553.18402.09607.36005.12622.53802.0603.37213.1604.79651.27252,1.16156l1.21387,4.72162.03064.06537c.18958.40228.30322.67682.36707.88397.18909.62756.51294,1.24402,1.01727,1.91882l.45001.5401c.39978.61945.95135,1.06799,1.60406,1.30432.1936.12872.41333.26648.66022.41132.56769.3299,1.21533.55914,1.97461.69794l.37866.2323.29266-.09253c.55865.26855,1.11627.49481,1.66589.67584.38818.12372.76025.27655,1.14093.46863.70801.35303,1.36517.52496,2.00934.52496l.10254-.00098.53204-.04828.25641-.07141c.64362-.172,1.16608-.47571,1.52362-.87195.13275-.11865.28204-.2514.51184-.44348,1.12537-.86188,1.63171-2.17426,1.39038-3.5611.54559-.95941.86188-1.92487.9433-2.87622l.06787-.16589c.28058-.72009.46967-1.409.56268-2.04657l1.34912-.32281-.46918-1.5296c.31232-.54309.50787-1.15454.58282-1.82129.04675-.41235.12115-.81763.22675-1.23901l.14484-.32178.04529-.21924.23981-.40527.06738-1.49548c.177-.19708.35706-.41431.54059-.65466.52191-.68182.86487-1.43359.93024-2.03296.177-.65167.2348-1.30841.26349-2.18079l1.02423-2.13403-.09247-.04681.63354-1.41296.15186-.44348.03619-.18402c.07593-.23682.1217-.48175.13629-.73267.08649-.11414.20312-.25842.35901-.43695l.06689-.0769.67432-1.37579-.18054-.60339c.14331-.34747.22424-.69745.24188-1.0459.08997-.11462.17096-.2373.24182-.36755l.02667-.04828.42139-1.13037-.0025-.00806c.18903-.29211.33789-.60693.44147-.93427l.18707-.1051.27704-.45654c.11664-.12219.22375-.24689.32031-.37415.09656.55212.20868,1.10223.3349,1.63824.14532.62354.31073,1.23798.49878,1.8595l.36456,1.11884c.20667.45251.34949.80804.43494,1.08508l.42944,1.40491c.23383.76837.57172,1.49646,1.00317,2.16168.29565.45813,1.05042,1.72021,1.05139,1.72174l.05682.09503.25446.23535c.76178.71149,1.6438,1.41998,2.62231,2.10535,1.16052.81055,2.46887,1.38281,4.05029,1.75891.17499.02917.33594.0744.48779.1358.46661.19104.98456.35193,1.4743.45959l1.1319.2876.85327.05933.36359-.05029c.12872,0,.20764.01208.24335.02014.37061.09052.75629.13574,1.14496.13574l.1272-.00098c.37964-.01007.68335-.04626.90717-.11066.38617-.0191.78088-.08447,1.16754-.19409.58331-.15485,1.05548-.45251,1.68451-1.06299l.05127-.05029.3877-.54907c.75879-.59235,1.22089-1.39539,1.32349-2.29443.35852-.31329.63007-.63812.82312-.98657.45807-.36206.94336-.86084,1.51404-1.55627l.20166-.2489.13226-.29468c.43945-.98254.47516-2.09076.10559-3.29608Z"/><path class="cls-2" d="M1299.00451,122.89091v38.36143h17.10873v-38.36143h19.60685v96.2931h-19.62365v-40.39688h-17.08634v40.39688h-19.71595v-96.2931h19.71036ZM1127.20273,122.89091v96.2931h18.05633v-61.2192l10.60962,61.2192h12.00856l10.77773-61.2192v61.2192h18.12366v-96.2931h-26.86019l-7.93192,46.29335-7.93479-46.29335h-26.84899ZM994.21371,122.89091l21.14618,64.69176v31.60134h20.94004v-31.60134l21.14747-64.69176h-19.60685l-12.00999,43.02133-12.01286-43.02133h-19.60398ZM1116.26092,219.18402h-19.60685l-3.28465-22.91806h-14.73378l-3.28465,22.91806h-19.49187l17.13802-96.2931h26.09491l17.16888,96.2931ZM1081.13117,178.78154h9.74299l-4.8702-34.12903-4.87279,34.12903ZM1268.22473,219.18402h-19.607l-3.28322-22.91806h-14.73378l-3.28594,22.91806h-19.49201l17.13945-96.2931h26.09491l17.16759,96.2931ZM1233.09599,178.78154h9.74313l-4.87006-34.12903-4.87307,34.12903ZM1407.27904,219.18402h-19.60685l-3.28379-22.91806h-14.73694l-3.28035,22.91806h-19.49474l17.1396-96.2931h26.09261l17.17046,96.2931ZM1372.14972,178.78154h9.74313l-4.87307-34.12903-4.87006,34.12903ZM927.75063,113.93776c-31.46324,0-56.96929,25.50605-56.96929,56.96929s25.50605,56.96929,56.96929,56.96929,56.96943-25.50591,56.96943-56.96929-25.50605-56.96929-56.96943-56.96929ZM974.99086,198.18096c-.59316,1.02784-1.77057,1.54579-2.92921,1.28897l-4.95289-1.0979c-8.67653,12.41036-23.0665,20.53176-39.35812,20.53176s-30.68145-8.1214-39.35783-20.53176l-4.95303,1.09804c-1.15862.25682-2.33562-.26098-2.92907-1.28883-.59345-1.0277-.45349-2.30635.3484-3.18129l3.42002-3.7324c-2.9002-6.18171-4.5251-13.08061-4.5251-20.36051,0-25.12448,19.30568-45.73679,43.89112-47.82004l1.52484-4.83591c.35686-1.13176,1.39403-1.89217,2.58079-1.89217s2.22395.7604,2.58067,1.89233l1.52483,4.83575c24.58558,2.08311,43.89112,22.69556,43.89112,47.82004,0,7.2799-1.62474,14.17894-4.5251,20.36051l3.42002,3.73225c.80189.87482.942,2.15331.34855,3.18115ZM972.52405,197.38424c.24273.05383.49239-.05599.61669-.27132.12432-.21533.0946-.48636-.07336-.66968l-10.12082-11.04502-2.24188.3965c-1.0824.1915-2.23527.01909-3.26168-.5735-1.14757-.6625-1.92132-1.72379-2.24732-2.90784h0l-.92379-3.35412h.00014c-.5946-2.15905-2.00559-4.0943-4.09817-5.30259l-4.76268-2.74963,21.09321-12.17811-2.70613-4.68703-23.79918,13.7404-3.41817-1.97343v-3.94687l23.7992-13.74053-2.70599-4.68703-21.09321,12.17809v-5.49926c0-2.41645-.97042-4.60606-2.54291-6.20037l-2.443-2.47702h0c-.86231-.87439-1.39462-2.07507-1.39462-3.40023,0-1.18517.42722-2.26971,1.13422-3.11151l1.46425-1.74317-4.50486-14.28733c-.07465-.23715-.29456-.39836-.54321-.39836-.24878,0-.46856.16121-.54335.39836l-4.50486,14.28733,1.46425,1.74317c.707.8418,1.13422,1.92635,1.13422,3.11151,0,1.32516-.53215,2.52584-1.39448,3.40023l-2.443,2.47702c-1.57249,1.59431-2.54305,3.78392-2.54305,6.20037v5.49926l-21.09306-12.17809-2.70612,4.68703,23.79918,13.74039v3.94701l-3.41816,1.97343-23.7992-13.7404-2.70599,4.68703,21.09306,12.17811-4.76254,2.74963c-2.09258,1.20829-3.50372,3.14354-4.09816,5.30259h0l-.92364,3.35412c-.32601,1.18404-1.09991,2.24534-2.24733,2.90784-1.02654.59259-2.17943.765-3.26183.5735l-2.24173-.3965-10.12082,11.04502c-.16796.18332-.19767.45435-.07334.66968.1243.21533.37394.32515.61669.27132l14.62554-3.2423.77763-2.13981c.37541-1.03301,1.10106-1.9453,2.12747-2.53789,1.14757-.66264,2.45362-.80203,3.64196-.49239h0l3.36662.87711c2.16709.56474,4.5485.31036,6.64108-.89778l4.76268-2.74977v24.35633h5.41212v-27.48092l3.41816-1.97343,3.41801,1.97343v27.48092h5.41212v-24.35618l4.76268,2.74963c2.09258,1.20815,4.47414,1.46253,6.64123.89778l3.36662-.87711h-.00013c1.18846-.30965,2.49437-.17025,3.64196.49239,1.02654.59259,1.75206,1.50487,2.12759,2.53789l.77749,2.13981,14.6257,3.2423ZM927.75078,174.85406l-3.41816-1.97359v-3.94685l3.41816-1.97358,3.41801,1.97358v3.94685l-3.41801,1.97359ZM924.33262,150.11329c0-1.88787,1.53028-3.41816,3.41816-3.41816,1.88773,0,3.41801,1.53028,3.41801,3.41816v8.62399l-3.41801,1.97343-3.41816-1.97343v-8.62399ZM911.45183,184.26415c-1.63492.94387-3.72536.38372-4.66923-1.25107-.94401-1.63493-.38386-3.72551,1.25107-4.66937l7.46867-4.31194,3.41816,1.97345v3.94701l-7.46867,4.31192ZM948.71895,183.01307c-.94387,1.63479-3.03444,2.19494-4.66937,1.25107h0l-7.46867-4.31207v-3.94687l3.4183-1.97358,7.46867,4.31207h0c1.63479.94387,2.19494,3.03444,1.25107,4.66937Z"/></svg>